<mxfile host="app.diagrams.net" agent="Mozilla/5.0 (Windows NT 10.0; Win64; x64; rv:129.0) Gecko/20100101 Firefox/129.0" version="24.7.6">
  <diagram name="Seite-1" id="8oX-7nu69xEVpHodJw5y">
    <mxGraphModel dx="1637" dy="866" grid="1" gridSize="10" guides="1" tooltips="1" connect="1" arrows="1" fold="1" page="1" pageScale="1" pageWidth="1100" pageHeight="850" math="0" shadow="0">
      <root>
        <mxCell id="0" />
        <mxCell id="1" parent="0" />
        <mxCell id="r1IgVI1dFCWuwIUw40IB-1" value="&lt;div&gt;Cache&amp;nbsp;&lt;/div&gt;&lt;div&gt;(spatial datasets)&lt;br&gt;&lt;/div&gt;" style="shape=cylinder3;whiteSpace=wrap;html=1;boundedLbl=1;backgroundOutline=1;size=15;fillColor=#f5f5f5;fontColor=#333333;strokeColor=#666666;" parent="1" vertex="1">
          <mxGeometry x="460" y="345" width="140" height="70" as="geometry" />
        </mxCell>
        <mxCell id="OIynQWRbufFzBbrqEs6u-29" value="Custom spatial data" style="shape=cylinder3;whiteSpace=wrap;html=1;boundedLbl=1;backgroundOutline=1;size=15;fillColor=#f5f5f5;fontColor=#333333;strokeColor=#666666;" parent="1" vertex="1">
          <mxGeometry x="850" y="210" width="140" height="70" as="geometry" />
        </mxCell>
        <mxCell id="2tG3FgVheVPW7J_a0n9p-7" style="edgeStyle=orthogonalEdgeStyle;rounded=0;orthogonalLoop=1;jettySize=auto;html=1;exitX=0;exitY=0.75;exitDx=0;exitDy=0;entryX=1;entryY=0.5;entryDx=0;entryDy=0;" edge="1" parent="1" source="OIynQWRbufFzBbrqEs6u-1" target="RWMj_lE9c-KkNywdO_du-14">
          <mxGeometry relative="1" as="geometry">
            <Array as="points">
              <mxPoint x="390" y="270" />
              <mxPoint x="390" y="300" />
            </Array>
          </mxGeometry>
        </mxCell>
        <mxCell id="OIynQWRbufFzBbrqEs6u-1" value="" style="rounded=1;whiteSpace=wrap;html=1;fillColor=#F5F5F5;strokeWidth=2;" parent="1" vertex="1">
          <mxGeometry x="440" y="120" width="180" height="200" as="geometry" />
        </mxCell>
        <mxCell id="RWMj_lE9c-KkNywdO_du-8" value="&lt;div&gt;&lt;i&gt;further data stores&lt;br&gt;&lt;/i&gt;&lt;/div&gt;" style="shape=cylinder3;whiteSpace=wrap;html=1;boundedLbl=1;backgroundOutline=1;size=15;fillColor=#f5f5f5;fontColor=#333333;strokeColor=#666666;dashed=1;" parent="1" vertex="1">
          <mxGeometry x="850" y="310" width="140" height="70" as="geometry" />
        </mxCell>
        <mxCell id="RWMj_lE9c-KkNywdO_du-12" value="SoRa X API" style="rounded=0;whiteSpace=wrap;html=1;fillColor=#f5f5f5;fontColor=#333333;strokeColor=#666666;" parent="1" vertex="1">
          <mxGeometry x="239" y="120" width="120" height="40" as="geometry" />
        </mxCell>
        <mxCell id="RWMj_lE9c-KkNywdO_du-13" value="SoRa User Module" style="rounded=0;whiteSpace=wrap;html=1;fillColor=#f5f5f5;fontColor=#333333;strokeColor=#666666;" parent="1" vertex="1">
          <mxGeometry x="239" y="200" width="120" height="40" as="geometry" />
        </mxCell>
        <mxCell id="RWMj_lE9c-KkNywdO_du-14" value="Open Route Service API" style="rounded=0;whiteSpace=wrap;html=1;fillColor=#f5f5f5;fontColor=#333333;strokeColor=#666666;" parent="1" vertex="1">
          <mxGeometry x="239" y="280" width="120" height="40" as="geometry" />
        </mxCell>
        <mxCell id="RWMj_lE9c-KkNywdO_du-18" value="SoRa Geolinking API" style="rounded=0;whiteSpace=wrap;html=1;fillColor=#F5F5F5;strokeColor=#666666;" parent="1" vertex="1">
          <mxGeometry x="460" y="150" width="140" height="40" as="geometry" />
        </mxCell>
        <mxCell id="RWMj_lE9c-KkNywdO_du-20" value="SoRa spatial data" style="shape=cylinder3;whiteSpace=wrap;html=1;boundedLbl=1;backgroundOutline=1;size=15;fillColor=#f5f5f5;fontColor=#333333;strokeColor=#666666;" parent="1" vertex="1">
          <mxGeometry x="850" y="150" width="140" height="70" as="geometry" />
        </mxCell>
        <mxCell id="RWMj_lE9c-KkNywdO_du-22" value="IOER Monitor" style="shape=cylinder3;whiteSpace=wrap;html=1;boundedLbl=1;backgroundOutline=1;size=15;fillColor=#f5f5f5;fontColor=#333333;strokeColor=#666666;strokeWidth=2;" parent="1" vertex="1">
          <mxGeometry x="850" y="90" width="140" height="70" as="geometry" />
        </mxCell>
        <mxCell id="RWMj_lE9c-KkNywdO_du-25" value="meta data, linking jobs, geoprocessing" style="shape=cylinder3;whiteSpace=wrap;html=1;boundedLbl=1;backgroundOutline=1;size=15;fillColor=#f5f5f5;fontColor=#333333;strokeColor=#666666;" parent="1" vertex="1">
          <mxGeometry x="460" y="220" width="140" height="70" as="geometry" />
        </mxCell>
        <mxCell id="RWMj_lE9c-KkNywdO_du-35" value="Geolinking API with database" style="text;html=1;strokeColor=none;fillColor=none;align=center;verticalAlign=middle;whiteSpace=wrap;rounded=0;fontStyle=1" parent="1" vertex="1">
          <mxGeometry x="400" y="30" width="260" height="30" as="geometry" />
        </mxCell>
        <mxCell id="RWMj_lE9c-KkNywdO_du-36" value="" style="line;strokeWidth=4;html=1;perimeter=backbonePerimeter;points=[];outlineConnect=0;" parent="1" vertex="1">
          <mxGeometry x="210" y="10" width="880" height="10" as="geometry" />
        </mxCell>
        <mxCell id="OIynQWRbufFzBbrqEs6u-4" value="" style="endArrow=classic;startArrow=classic;html=1;rounded=0;exitX=0.5;exitY=0;exitDx=0;exitDy=0;exitPerimeter=0;entryX=0.5;entryY=1;entryDx=0;entryDy=0;" parent="1" source="RWMj_lE9c-KkNywdO_du-25" target="RWMj_lE9c-KkNywdO_du-18" edge="1">
          <mxGeometry width="50" height="50" relative="1" as="geometry">
            <mxPoint x="720" y="470" as="sourcePoint" />
            <mxPoint x="770" y="420" as="targetPoint" />
          </mxGeometry>
        </mxCell>
        <mxCell id="OIynQWRbufFzBbrqEs6u-7" value="Connectors" style="text;html=1;strokeColor=none;fillColor=none;align=center;verticalAlign=middle;whiteSpace=wrap;rounded=0;fontStyle=1" parent="1" vertex="1">
          <mxGeometry x="660" y="30" width="130" height="30" as="geometry" />
        </mxCell>
        <mxCell id="OIynQWRbufFzBbrqEs6u-8" value="Datastores with spatial data / indicators" style="text;html=1;strokeColor=none;fillColor=none;align=center;verticalAlign=middle;whiteSpace=wrap;rounded=0;fontStyle=1" parent="1" vertex="1">
          <mxGeometry x="790" y="30" width="270" height="30" as="geometry" />
        </mxCell>
        <mxCell id="OIynQWRbufFzBbrqEs6u-9" value="CSW" style="shape=card;whiteSpace=wrap;html=1;" parent="1" vertex="1">
          <mxGeometry x="700" y="80" width="60" height="90" as="geometry" />
        </mxCell>
        <mxCell id="OIynQWRbufFzBbrqEs6u-10" value="GeoSN / GeoMIS Standard" style="shape=card;whiteSpace=wrap;html=1;" parent="1" vertex="1">
          <mxGeometry x="700" y="190" width="60" height="90" as="geometry" />
        </mxCell>
        <mxCell id="OIynQWRbufFzBbrqEs6u-11" value="Direct upload" style="shape=card;whiteSpace=wrap;html=1;" parent="1" vertex="1">
          <mxGeometry x="700" y="300" width="60" height="90" as="geometry" />
        </mxCell>
        <mxCell id="OIynQWRbufFzBbrqEs6u-13" value="External APIÂ´s" style="text;html=1;strokeColor=none;fillColor=none;align=center;verticalAlign=middle;whiteSpace=wrap;rounded=0;fontStyle=1" parent="1" vertex="1">
          <mxGeometry x="210" y="30" width="190" height="30" as="geometry" />
        </mxCell>
        <mxCell id="OIynQWRbufFzBbrqEs6u-14" value="" style="line;strokeWidth=4;html=1;perimeter=backbonePerimeter;points=[];outlineConnect=0;" parent="1" vertex="1">
          <mxGeometry x="210" y="425" width="880" height="10" as="geometry" />
        </mxCell>
        <mxCell id="OIynQWRbufFzBbrqEs6u-41" value="" style="edgeStyle=elbowEdgeStyle;elbow=horizontal;endArrow=classic;html=1;curved=0;rounded=0;endSize=6;startSize=6;exitX=1.001;exitY=0.226;exitDx=0;exitDy=0;startArrow=classic;startFill=1;exitPerimeter=0;entryX=-0.042;entryY=0.562;entryDx=0;entryDy=0;entryPerimeter=0;" parent="1" source="OIynQWRbufFzBbrqEs6u-1" target="OIynQWRbufFzBbrqEs6u-9" edge="1">
          <mxGeometry width="50" height="50" relative="1" as="geometry">
            <mxPoint x="690" y="150" as="sourcePoint" />
            <mxPoint x="690" y="150" as="targetPoint" />
          </mxGeometry>
        </mxCell>
        <mxCell id="OIynQWRbufFzBbrqEs6u-42" value="" style="edgeStyle=elbowEdgeStyle;elbow=horizontal;endArrow=classic;html=1;curved=0;rounded=0;endSize=6;startSize=6;exitX=1;exitY=0.5;exitDx=0;exitDy=0;entryX=-0.065;entryY=0.619;entryDx=0;entryDy=0;entryPerimeter=0;startArrow=classic;startFill=1;" parent="1" target="OIynQWRbufFzBbrqEs6u-10" edge="1">
          <mxGeometry width="50" height="50" relative="1" as="geometry">
            <mxPoint x="620" y="246" as="sourcePoint" />
            <mxPoint x="700" y="200" as="targetPoint" />
          </mxGeometry>
        </mxCell>
        <mxCell id="OIynQWRbufFzBbrqEs6u-43" value="" style="edgeStyle=elbowEdgeStyle;elbow=horizontal;endArrow=classic;html=1;curved=0;rounded=0;endSize=6;startSize=6;exitX=1;exitY=0.5;exitDx=0;exitDy=0;entryX=-0.03;entryY=0.562;entryDx=0;entryDy=0;entryPerimeter=0;startArrow=classic;startFill=1;" parent="1" target="OIynQWRbufFzBbrqEs6u-11" edge="1">
          <mxGeometry width="50" height="50" relative="1" as="geometry">
            <mxPoint x="620" y="293" as="sourcePoint" />
            <mxPoint x="700" y="247" as="targetPoint" />
          </mxGeometry>
        </mxCell>
        <mxCell id="OIynQWRbufFzBbrqEs6u-44" value="" style="edgeStyle=elbowEdgeStyle;elbow=horizontal;endArrow=classic;html=1;curved=0;rounded=0;endSize=6;startSize=6;exitX=1;exitY=0.5;exitDx=0;exitDy=0;startArrow=classic;startFill=1;" parent="1" edge="1">
          <mxGeometry width="50" height="50" relative="1" as="geometry">
            <mxPoint x="760" y="351" as="sourcePoint" />
            <mxPoint x="850" y="250" as="targetPoint" />
          </mxGeometry>
        </mxCell>
        <mxCell id="OIynQWRbufFzBbrqEs6u-46" value="" style="edgeStyle=elbowEdgeStyle;elbow=horizontal;endArrow=classic;html=1;curved=0;rounded=0;endSize=6;startSize=6;exitX=1;exitY=0.5;exitDx=0;exitDy=0;entryX=0;entryY=0.5;entryDx=0;entryDy=0;entryPerimeter=0;startArrow=classic;startFill=1;dashed=1;dashPattern=8 8;" parent="1" target="RWMj_lE9c-KkNywdO_du-22" edge="1">
          <mxGeometry width="50" height="50" relative="1" as="geometry">
            <mxPoint x="760" y="126" as="sourcePoint" />
            <mxPoint x="840" y="80" as="targetPoint" />
          </mxGeometry>
        </mxCell>
        <mxCell id="OIynQWRbufFzBbrqEs6u-49" value="" style="edgeStyle=elbowEdgeStyle;elbow=horizontal;endArrow=classic;html=1;curved=0;rounded=0;endSize=6;startSize=6;exitX=1;exitY=0.5;exitDx=0;exitDy=0;startArrow=classic;startFill=1;" parent="1" edge="1">
          <mxGeometry width="50" height="50" relative="1" as="geometry">
            <mxPoint x="760" y="240" as="sourcePoint" />
            <mxPoint x="850" y="139" as="targetPoint" />
          </mxGeometry>
        </mxCell>
        <mxCell id="OIynQWRbufFzBbrqEs6u-50" value="?" style="text;html=1;strokeColor=none;fillColor=none;align=center;verticalAlign=middle;whiteSpace=wrap;rounded=0;" parent="1" vertex="1">
          <mxGeometry x="824.5" y="170" width="30" height="30" as="geometry" />
        </mxCell>
        <mxCell id="OIynQWRbufFzBbrqEs6u-51" value="" style="endArrow=none;dashed=1;html=1;dashPattern=1 3;strokeWidth=2;rounded=0;" parent="1" edge="1">
          <mxGeometry width="50" height="50" relative="1" as="geometry">
            <mxPoint x="400" y="80" as="sourcePoint" />
            <mxPoint x="400" y="30" as="targetPoint" />
          </mxGeometry>
        </mxCell>
        <mxCell id="OIynQWRbufFzBbrqEs6u-52" value="" style="endArrow=none;dashed=1;html=1;dashPattern=1 3;strokeWidth=2;rounded=0;" parent="1" edge="1">
          <mxGeometry width="50" height="50" relative="1" as="geometry">
            <mxPoint x="659.17" y="80" as="sourcePoint" />
            <mxPoint x="659.17" y="30" as="targetPoint" />
          </mxGeometry>
        </mxCell>
        <mxCell id="OIynQWRbufFzBbrqEs6u-53" value="" style="endArrow=none;dashed=1;html=1;dashPattern=1 3;strokeWidth=2;rounded=0;" parent="1" edge="1">
          <mxGeometry width="50" height="50" relative="1" as="geometry">
            <mxPoint x="795.5" y="80" as="sourcePoint" />
            <mxPoint x="795.5" y="30" as="targetPoint" />
          </mxGeometry>
        </mxCell>
        <mxCell id="r1IgVI1dFCWuwIUw40IB-6" style="edgeStyle=orthogonalEdgeStyle;rounded=0;orthogonalLoop=1;jettySize=auto;html=1;exitX=0.5;exitY=1;exitDx=0;exitDy=0;exitPerimeter=0;entryX=0.5;entryY=0;entryDx=0;entryDy=0;entryPerimeter=0;startArrow=classic;startFill=1;" parent="1" source="RWMj_lE9c-KkNywdO_du-25" target="r1IgVI1dFCWuwIUw40IB-1" edge="1">
          <mxGeometry relative="1" as="geometry" />
        </mxCell>
        <mxCell id="2tG3FgVheVPW7J_a0n9p-3" value="BKG Geocoder API" style="rounded=0;whiteSpace=wrap;html=1;fillColor=#f5f5f5;fontColor=#333333;strokeColor=#666666;" vertex="1" parent="1">
          <mxGeometry x="239" y="360" width="120" height="40" as="geometry" />
        </mxCell>
        <mxCell id="2tG3FgVheVPW7J_a0n9p-5" style="edgeStyle=orthogonalEdgeStyle;rounded=0;orthogonalLoop=1;jettySize=auto;html=1;exitX=1;exitY=0.5;exitDx=0;exitDy=0;entryX=0;entryY=0.101;entryDx=0;entryDy=0;entryPerimeter=0;" edge="1" parent="1" source="RWMj_lE9c-KkNywdO_du-12" target="OIynQWRbufFzBbrqEs6u-1">
          <mxGeometry relative="1" as="geometry" />
        </mxCell>
        <mxCell id="2tG3FgVheVPW7J_a0n9p-8" style="edgeStyle=orthogonalEdgeStyle;rounded=0;orthogonalLoop=1;jettySize=auto;html=1;exitX=1;exitY=0.5;exitDx=0;exitDy=0;entryX=0.005;entryY=0.87;entryDx=0;entryDy=0;entryPerimeter=0;" edge="1" parent="1" source="2tG3FgVheVPW7J_a0n9p-3" target="OIynQWRbufFzBbrqEs6u-1">
          <mxGeometry relative="1" as="geometry" />
        </mxCell>
      </root>
    </mxGraphModel>
  </diagram>
</mxfile>
